<?xml version="1.0" encoding="UTF-8" standalone="no"?>
<!-- Created with Inkscape (http://www.inkscape.org/) -->
<svg id="svg5370" xmlns:rdf="http://www.w3.org/1999/02/22-rdf-syntax-ns#" xmlns="http://www.w3.org/2000/svg" height="76.237mm" width="75.111mm" version="1.1" xmlns:cc="http://creativecommons.org/ns#" xmlns:dc="http://purl.org/dc/elements/1.1/" viewBox="0 0 266.14131 270.13129">
 <metadata id="metadata5375">
  <rdf:RDF>
   <cc:Work rdf:about="">
    <dc:format>image/svg+xml</dc:format>
    <dc:type rdf:resource="http://purl.org/dc/dcmitype/StillImage"/>
    <dc:title/>
   </cc:Work>
  </rdf:RDF>
 </metadata>
 <g id="layer1" transform="translate(-61.215 -174.44)">
  <g id="g4768" transform="translate(-184.64 102.33)">
   <path id="path4145" fill="#e4eaf8" d="m359.66 251.88-0.008 0.002s7.42-14.543-7.848-14.547h-21.084c2.692 0 4.345 2.964 2.914 5.244-18.437 29.363-19.324 61.33-18.819 70.669 1.147 21.245 23.978 29.499 34.735 11.863-1.948-3.257-3.226-7.25-3.476-11.863-0.453-8.358 0.221-34.846 13.586-61.368z"/>
   <path id="path4149" d="m482.52 235.24c12.141 0 21.982-9.842 21.982-21.982v-107.84c0-12.141-9.842-21.982-21.982-21.982-12.141 0-21.982 9.842-21.982 21.982v107.84c0 12.14 9.841 21.982 21.982 21.982z" fill="#ff9052"/>
   <path id="path4153" d="m482.52 168.26c-12.141 0-21.982-9.842-21.982-21.982v66.971c0 12.141 9.842 21.982 21.982 21.982 12.141 0 21.982-9.842 21.982-21.982v-66.971c0.001 12.14-9.841 21.982-21.982 21.982z" fill="#ff8031"/>
   <path id="path4157" d="m305 117.91c0-3.174-3.348-3.369-6.47-8.911-7.334-12.956 1.992-29.388 17.178-29.388h-30.85c-12.404 0-21.326 10.311-19.99 21.988 0.943 8.25 7.041 15.076 15.14 16.934 3.04 0.7 7.834 0.509 0.714 0.509-10.885 0-19.716 8.834-19.716 19.715 0 10.889 8.827 19.715 19.714 19.715-6.461 0-10.977-0.594-16.569 2.646-4.078 2.358-7.178 6.113-8.724 10.486-0.611 1.737-0.971 3.508-1.086 5.319-0.066 1.032-0.046 2.107 0.038 3.026 0.833 9.546 8.531 17.18 18.171 17.889v0.194c-10.637 0.256-19.186 8.941-19.186 19.639 0 10.86 8.804 19.664 19.664 19.664h31.258c-10.86 0-19.663-8.804-19.663-19.664 0-8.532 5.443-15.773 13.04-18.492v-0.001s1.118-0.45 1.118-1.515c0-0.844-1.118-1.307-1.118-1.307h0.006c-17.194-7.202-15.725-32.035 2.211-37.131 0 0 1.713-0.454 1.713-2.148s-0.972-2.226-0.972-2.226l0.006-0.003c-12.106-8.554-10.874-26.883 2.478-33.661-0.01-0.009-0.024-0.02-0.024-0.02s1.919-1.257 1.919-3.257z" fill="#e4eaf8"/>
   <path id="path4161" fill="#474d54" d="m504.5 167.28c4.143 0 7.5-3.357 7.5-7.5v-54.359c0-16.257-13.226-29.482-29.482-29.482-12.079 0-22.479 7.303-27.03 17.725-7.44-0.631-17.363 2.274-28.066-5.66-13.62-10.1-30.63-15.891-46.68-15.891l-96.292 0.001c-23.526 0-35.747 27.545-20.444 45.177-11.927 9.325-13.916 26.33-4.824 38.087-0.078 0.1-15.358 9.181-11.938 27.708 1.027 5.649 3.754 10.623 7.595 14.433-18.376 16.6-6.663 47.322 18.19 47.322h50.598c-17.674 32.319-16.502 64.987-16.295 68.817 1.58 29.247 35.414 39.715 49.492 13.898 3.776-6.925 5.022-15.144 6.226-22.962 2.632-10.81 10.651-30.265 34.886-41.765 8.693-2.797 17.38-7.34 25.156-13.159 5.602-4.193 10.199-9.854 13.295-16.369 5.128-10.796 17.077-8.031 19.044-8.424 4.519 10.493 14.96 17.859 27.092 17.859 16.257 0 29.482-13.226 29.482-29.482v-18.475c0-4.143-3.357-7.5-7.5-7.5s-7.5 3.357-7.5 7.5v18.475c0 7.984-6.496 14.481-14.481 14.481-8.08 0-14.482-6.628-14.482-14.481 0.028-114.85-0.066-107.87 0.073-109.27 0.716-7.205 6.825-13.05 14.41-13.05 7.984 0 14.481 6.496 14.481 14.481v54.358c-0.002 4.143 3.355 7.502 7.499 7.502zm-51.466 42.597h-3.325c-11.426 0-21.975 6.668-26.877 16.987-2.054 4.323-5.074 8.057-8.734 10.796-11.26 8.428-20.75 10.754-22.085 11.376-30.502 14.242-40.427 38.924-43.63 52.369-0.5 2.093-1.458 12.963-4.734 18.97-6.901 12.66-20.594 6.332-21.342-7.526-0.194-3.592-1.348-35.967 17.682-66.275 4.542-7.234-0.645-16.734-9.267-16.734h-57.697c-6.707 0-12.164-5.456-12.164-12.163s5.456-12.164 12.164-12.164c16.668-0.034-4.538-0.104 7.692-0.104 4.143 0 7.5-3.357 7.5-7.5s-3.357-7.5-7.5-7.5h-6.709c-5.394 0-10.664-3.533-12.025-10.097-0.773-4.397 1.221-7.585 1.53-8.368l1.248-1.726 1.188-1.198c0.636-0.551 2.203-1.559 2.103-1.491 2.334-0.9 3.43-1.551 5.955-1.551h6.708c4.142 0 7.5-3.357 7.5-7.5 0-4.142-3.357-7.5-7.499-7.5-13.096-0.002-17.006-18.134-4.891-23.41 3.221-1.405 5.358-0.923 8.617-1.021 4.143 0 7.5-3.357 7.5-7.5 0-4.084-3.264-7.405-7.325-7.498-1.375-0.027-0.652-0.026-1.485-0.073-0.1-0.02-2.297-0.46-2.157-0.432l-0.623-0.202-3.012-1.577c-0.102-0.086-1.677-1.427-1.575-1.341l-1.516-1.865c-0.048-0.109-2.484-3.492-1.932-8.16 0.916-6.621 6.269-10.781 12.128-10.781l96.292-0.001c12.713 0 26.825 4.836 37.75 12.939 15.16 11.239 29.562 8.06 34.547 8.611v101.21z"/>
  </g>
 </g>
</svg>
