<?xml version="1.0" encoding="UTF-8" standalone="no"?>
<!-- Created with Inkscape (http://www.inkscape.org/) -->
<svg id="svg4794" xmlns:rdf="http://www.w3.org/1999/02/22-rdf-syntax-ns#" xmlns="http://www.w3.org/2000/svg" height="76.236mm" width="75.111mm" version="1.1" xmlns:cc="http://creativecommons.org/ns#" xmlns:dc="http://purl.org/dc/elements/1.1/" viewBox="0 0 266.14142 270.12653">
 <metadata id="metadata4799">
  <rdf:RDF>
   <cc:Work rdf:about="">
    <dc:format>image/svg+xml</dc:format>
    <dc:type rdf:resource="http://purl.org/dc/dcmitype/StillImage"/>
    <dc:title/>
   </cc:Work>
  </rdf:RDF>
 </metadata>
 <g id="layer1" transform="translate(-115.5 -83.013)">
  <g id="g4775" transform="translate(115.5 -86.751)">
   <path id="path4147" fill="#e4eaf8" d="m107.5 259.84c-11.209 5.299-20.156 11.656-25.107 22.077-3.686 7.76-11.511 12.706-20.102 12.706h-18.219c0.254 1.336 0.392 2.713 0.392 4.123-0.148 112.97 0.353 108.18-0.416 112.09 17.411 1.13 30.638-3.51 44.997 7.136 5.132 3.805 10.722 6.849 16.439 9.153-32.671-50.919-32.064-116.88 2.016-167.29z"/>
   <path id="path4151" d="m29.483 276.77c-12.141 0-21.982 9.842-21.982 21.982v107.84c0 12.141 9.842 21.982 21.982 21.982s21.982-9.842 21.982-21.982v-107.84c0-12.142-9.841-21.983-21.982-21.983z" fill="#6dc296"/>
   <path id="path4155" d="m29.483 361.6c-12.141 0-21.982-9.842-21.982-21.982v66.971c0 12.141 9.842 21.982 21.982 21.982s21.982-9.842 21.982-21.982v-66.971c0 12.141-9.841 21.982-21.982 21.982z" fill="#5fa77e"/>
   <path id="path4163" fill="#474d54" d="m238.98 267.16h-50.598c17.674-32.319 16.502-64.987 16.295-68.818-1.588-29.362-35.458-39.63-49.492-13.897-3.776 6.925-5.021 15.144-6.226 22.962-2.632 10.81-10.651 30.265-34.886 41.765-8.692 2.796-17.378 7.338-25.157 13.159-5.602 4.193-10.199 9.855-13.294 16.369-5.128 10.796-17.077 8.031-19.044 8.424-4.519-10.494-14.96-17.86-27.091-17.86-16.264 0-29.49 13.23-29.49 29.49v11.596c0 4.143 3.357 7.5 7.5 7.5s7.5-3.357 7.5-7.5v-11.596c0-7.985 6.496-14.482 14.482-14.482 8.146 0 14.482 6.704 14.482 14.482v107.84c0 7.803-6.359 14.481-14.482 14.481-7.984 0-14.482-6.5-14.482-14.49v-61.238c0-4.143-3.357-7.5-7.5-7.5s-7.5 3.357-7.5 7.5v61.238c0 16.257 13.226 29.482 29.483 29.482 12.079 0 22.479-7.303 27.03-17.725 7.44 0.631 17.363-2.274 28.066 5.66 13.617 10.098 30.634 15.889 46.685 15.889h42.084c4.143 0 7.5-3.357 7.5-7.5s-3.357-7.5-7.5-7.5h-42.084c-12.713 0-26.825-4.836-37.75-12.939-15.16-11.239-29.562-8.06-34.547-8.611v-101.22h3.325c11.426 0 21.975-6.668 26.877-16.987 2.054-4.323 5.074-8.057 8.733-10.797 11.263-8.428 20.751-10.753 22.086-11.375 30.502-14.242 40.427-38.924 43.63-52.369 0.047-0.196 0.086-0.396 0.116-0.595 0.906-5.886 1.945-13.474 4.618-18.375 6.917-12.692 20.594-6.299 21.342 7.526 0.194 3.592 1.348 35.967-17.682 66.275-4.542 7.234 0.645 16.734 9.267 16.734h57.697c6.707 0 12.164 5.456 12.164 12.163 0 6.706-5.456 12.163-12.164 12.163h-5.66c-0.26 0-0.52 0.014-0.778 0.04-0.097 0.011-0.194 0.016-0.293 0.022l-0.326 0.025c-0.21 0.011-0.422 0.017-0.635 0.017-4.143 0-7.5 3.357-7.5 7.5s3.357 7.5 7.5 7.5h6.709c5.394 0 10.665 3.533 12.026 10.098 1.016 5.69-2.365 9.466-2.411 9.646l-1.146 1.268c-0.101 0.093-0.511 0.471-0.41 0.378-0.634 0.549-2.071 1.482-1.971 1.414-3.716 2.138-7.489 1.624-12.796 1.628-4.142 0-7.5 3.357-7.5 7.5 0 4.142 3.357 7.5 7.499 7.5 13.226 0.002 17.138 18.534 4.459 23.587-3.22 1.255-5.326 0.712-8.186 0.844-4.143 0-7.5 3.357-7.5 7.5 0 4.084 3.264 7.405 7.325 7.498 3.023 0.075 5.194 1.072 5.094 1.036 1.803 0.854 3.188 2.04 3.048 1.929 8.48 7.42 3.439 21.467-7.969 21.467h-19.206c-4.143 0-7.5 3.357-7.5 7.5s3.357 7.5 7.5 7.5h19.206c13.158 0 24.417-9.39 26.778-22.363-0.039-0.167 2.972-12.098-6.333-22.813 11.962-9.352 13.893-26.356 4.825-38.087 14.322-9.243 16.795-29.793 4.34-42.141 18.376-16.59 6.668-47.318-18.19-47.318z"/>
  </g>
 </g>
</svg>
